HIERARCHY
ROOT root
{
	OFFSET	0	13.1	24.9
	CHANNELS 6  Xposition Yposition Zposition Xrotation Yrotation Zrotation
	JOINT spine_1
	{
		OFFSET	0	9.99999	0
		CHANNELS 3  Xrotation Yrotation Zrotation
		JOINT spine_2
		{
			OFFSET	0	112	-10
			CHANNELS 3  Xrotation Yrotation Zrotation
			JOINT spine_3
			{
				OFFSET	0	206.5	19.3
				CHANNELS 3  Xrotation Yrotation Zrotation
				JOINT spine_4
				{
					OFFSET	0	110.4	14.6
					CHANNELS 3  Xrotation Yrotation Zrotation
					JOINT neck_1
					{
						OFFSET	0	71.8	-50.3
						CHANNELS 3  Xrotation Yrotation Zrotation
						JOINT neck_2
						{
							OFFSET	0	86.2	-25.8
							CHANNELS 3  Xrotation Yrotation Zrotation
							JOINT head_ee
							{
								OFFSET	0	179.8	-8.7
								CHANNELS 3  Xrotation Yrotation Zrotation
								End Site
								{
									OFFSET	1	0	0
								}
							}
						}
					}
					JOINT left_clavicle
					{
						OFFSET	-43.2	22.4	-70.8
						CHANNELS 3  Xrotation Yrotation Zrotation
						JOINT left_shoulder
						{
							OFFSET	-93.9	-5.79999	48.7
							CHANNELS 3  Xrotation Yrotation Zrotation
							JOINT left_elbow
							{
								OFFSET	-291.4	-30.8	15.2
								CHANNELS 3  Xrotation Yrotation Zrotation
								JOINT left_lowarm_twist
								{
									OFFSET	-110.7	-3.89999	13.6
									CHANNELS 3  Xrotation Yrotation Zrotation
									JOINT left_hand
									{
										OFFSET	-110.7	-3.89999	13.6
										CHANNELS 3  Xrotation Yrotation Zrotation
										JOINT left_ee
										{
											OFFSET	-80.8	-5.10001	12.1
											CHANNELS 3  Xrotation Yrotation Zrotation
											End Site
											{
												OFFSET	1	0	0
											}
										}
									}
								}
							}
						}
					}
					JOINT right_clavicle
					{
						OFFSET	43.2	22.4	-70.8
						CHANNELS 3  Xrotation Yrotation Zrotation
						JOINT right_shoulder
						{
							OFFSET	93.9	-5.79999	48.7
							CHANNELS 3  Xrotation Yrotation Zrotation
							JOINT right_elbow
							{
								OFFSET	291.4	-30.8	15.2
								CHANNELS 3  Xrotation Yrotation Zrotation
								JOINT right_lowarm_twist
								{
									OFFSET	110.7	-3.89999	13.6
									CHANNELS 3  Xrotation Yrotation Zrotation
									JOINT right_hand
									{
										OFFSET	110.7	-3.89999	13.6
										CHANNELS 3  Xrotation Yrotation Zrotation
										JOINT right_ee
										{
											OFFSET	80.8	-5.10001	12.1
											CHANNELS 3  Xrotation Yrotation Zrotation
											End Site
											{
												OFFSET	1	0	0
											}
										}
									}
								}
							}
						}
					}
				}
			}
		}
	}
	JOINT left_hip
	{
		OFFSET	-82.8	-127.5	0.300001
		CHANNELS 3  Xrotation Yrotation Zrotation
		JOINT left_knee
		{
			OFFSET	-28.2	-396.7	2.2
			CHANNELS 3  Xrotation Yrotation Zrotation
			JOINT left_ankle
			{
				OFFSET	-11.7	-411.3	35.4
				CHANNELS 3  Xrotation Yrotation Zrotation
				JOINT left_toes
				{
					OFFSET	0	-60	-88.6
					CHANNELS 3  Xrotation Yrotation Zrotation
					JOINT left_foot_ee
					{
						OFFSET	-22.5	-16.5	-42.2
						CHANNELS 3  Xrotation Yrotation Zrotation
						End Site
						{
							OFFSET	1	0	0
						}
					}
				}
			}
		}
	}
	JOINT right_hip
	{
		OFFSET	82.8	-127.5	0.300001
		CHANNELS 3  Xrotation Yrotation Zrotation
		JOINT right_knee
		{
			OFFSET	28.2	-396.7	2.2
			CHANNELS 3  Xrotation Yrotation Zrotation
			JOINT right_ankle
			{
				OFFSET	11.7	-411.3	35.4
				CHANNELS 3  Xrotation Yrotation Zrotation
				JOINT right_toes
				{
					OFFSET	0	-60	-88.6
					CHANNELS 3  Xrotation Yrotation Zrotation
					JOINT right_foot_ee
					{
						OFFSET	22.5	-16.5	-42.2
						CHANNELS 3  Xrotation Yrotation Zrotation
						End Site
						{
							OFFSET	1	0	0
						}
					}
				}
			}
		}
	}
}
MOTION
Frames: 12
Frame Time: 0.02
2800.94 716.97 -1473.77 1.94163437995 56.2241853441 16.0555510107 2.48173 -1.0999 -5.4226 2.49776 -0.753145 -5.48135 2.56746 0.167497 -5.53017 2.5255 -0.706651 -5.48752 0.619739 -2.88543 3.11962 0.710014 -7.69316 3.10183 -0.0 0.0 -0.0 10.718 -4.74121 21.3562 -5.97244 -19.3795 66.2398 1.2793 -32.362 0.371224 21.8322 0.245848 -2.7612 -0.509771 -23.201 -13.2455 -0.0 0.0 -0.0 -0.285183 -0.424405 0.497341 -16.7066 23.771 -74.3344 0.543105 15.0584 -0.071783 11.2289 -0.258297 1.40885 1.33018 -7.43945 -11.8265 0.0 0.0 0.0 13.2818 31.3032 -39.4321 -23.1709 0.244525 3.52317 36.928 -32.4258 -5.78314 -3.10833 0.0 0.0 -0.0 0.0 -0.0 18.595 -2.57812 -16.5226 0.259659 0.010779 0.0383887 8.81875 -19.8671 1.28617 -2.50244 0.0 0.0 0.0 0.0 0.0 
2800.94 716.97 -1473.77 1.90118390004 55.4052125523 16.1044487816 2.48173 -1.0999 -5.4226 2.49776 -0.753145 -5.48135 2.56746 0.167497 -5.53017 2.5255 -0.706651 -5.48752 0.619739 -2.88543 3.11962 0.710014 -7.69316 3.10183 -0.0 0.0 -0.0 10.718 -4.74121 21.3562 -5.97244 -19.3795 66.2398 1.2793 -32.362 0.371224 21.8322 0.245848 -2.7612 -0.509771 -23.201 -13.2455 -0.0 0.0 -0.0 -0.285183 -0.424405 0.497341 -16.7066 23.771 -74.3344 0.543105 15.0584 -0.071783 11.2289 -0.258297 1.40885 1.33018 -7.43945 -11.8265 0.0 0.0 0.0 13.2818 31.3032 -39.4321 -23.1709 0.244525 3.52317 36.928 -32.4258 -5.78314 -3.10833 0.0 0.0 -0.0 0.0 -0.0 18.595 -2.57812 -16.5226 0.259659 0.010779 0.0383887 8.81875 -19.8671 1.28617 -2.50244 0.0 0.0 0.0 0.0 0.0 
2800.94 716.97 -1473.77 1.84147533862 54.1141903113 16.1775501639 2.48173 -1.0999 -5.4226 2.49776 -0.753145 -5.48135 2.56746 0.167497 -5.53017 2.5255 -0.706651 -5.48752 0.619739 -2.88543 3.11962 0.710014 -7.69316 3.10183 -0.0 0.0 -0.0 10.718 -4.74121 21.3562 -5.97244 -19.3795 66.2398 1.2793 -32.362 0.371224 21.8322 0.245848 -2.7612 -0.509771 -23.201 -13.2455 -0.0 0.0 -0.0 -0.285183 -0.424405 0.497341 -16.7066 23.771 -74.3344 0.543105 15.0584 -0.071783 11.2289 -0.258297 1.40885 1.33018 -7.43945 -11.8265 0.0 0.0 0.0 13.2818 31.3032 -39.4321 -23.1709 0.244525 3.52317 36.928 -32.4258 -5.78314 -3.10833 0.0 0.0 -0.0 0.0 -0.0 18.595 -2.57812 -16.5226 0.259659 0.010779 0.0383887 8.81875 -19.8671 1.28617 -2.50244 0.0 0.0 0.0 0.0 0.0 
2800.94 716.97 -1473.77 1.80341049262 53.2346020043 16.2247953436 2.48173 -1.0999 -5.4226 2.49776 -0.753145 -5.48135 2.56746 0.167497 -5.53017 2.5255 -0.706651 -5.48752 0.619739 -2.88543 3.11962 0.710014 -7.69316 3.10183 -0.0 0.0 -0.0 10.718 -4.74121 21.3562 -5.97244 -19.3795 66.2398 1.2793 -32.362 0.371224 21.8322 0.245848 -2.7612 -0.509771 -23.201 -13.2455 -0.0 0.0 -0.0 -0.285183 -0.424405 0.497341 -16.7066 23.771 -74.3344 0.543105 15.0584 -0.071783 11.2289 -0.258297 1.40885 1.33018 -7.43945 -11.8265 0.0 0.0 0.0 13.2818 31.3032 -39.4321 -23.1709 0.244525 3.52317 36.928 -32.4258 -5.78314 -3.10833 0.0 0.0 -0.0 0.0 -0.0 18.595 -2.57812 -16.5226 0.259659 0.010779 0.0383887 8.81875 -19.8671 1.28617 -2.50244 0.0 0.0 0.0 0.0 0.0 
2800.94 716.97 -1473.77 1.77161934312 52.4627558473 16.26468079 2.48173 -1.0999 -5.4226 2.49776 -0.753145 -5.48135 2.56746 0.167497 -5.53017 2.5255 -0.706651 -5.48752 0.619739 -2.88543 3.11962 0.710014 -7.69316 3.10183 -0.0 0.0 -0.0 10.718 -4.74121 21.3562 -5.97244 -19.3795 66.2398 1.2793 -32.362 0.371224 21.8322 0.245848 -2.7612 -0.509771 -23.201 -13.2455 -0.0 0.0 -0.0 -0.285183 -0.424405 0.497341 -16.7066 23.771 -74.3344 0.543105 15.0584 -0.071783 11.2289 -0.258297 1.40885 1.33018 -7.43945 -11.8265 0.0 0.0 0.0 13.2818 31.3032 -39.4321 -23.1709 0.244525 3.52317 36.928 -32.4258 -5.78314 -3.10833 0.0 0.0 -0.0 0.0 -0.0 18.595 -2.57812 -16.5226 0.259659 0.010779 0.0383887 8.81875 -19.8671 1.28617 -2.50244 0.0 0.0 0.0 0.0 0.0 
2800.94 716.97 -1473.77 1.72097807348 51.1561646263 16.3291090571 2.48173 -1.0999 -5.4226 2.49776 -0.753145 -5.48135 2.56746 0.167497 -5.53017 2.5255 -0.706651 -5.48752 0.619739 -2.88543 3.11962 0.710014 -7.69316 3.10183 -0.0 0.0 -0.0 10.718 -4.74121 21.3562 -5.97244 -19.3795 66.2398 1.2793 -32.362 0.371224 21.8322 0.245848 -2.7612 -0.509771 -23.201 -13.2455 -0.0 0.0 -0.0 -0.285183 -0.424405 0.497341 -16.7066 23.771 -74.3344 0.543105 15.0584 -0.071783 11.2289 -0.258297 1.40885 1.33018 -7.43945 -11.8265 0.0 0.0 0.0 13.2818 31.3032 -39.4321 -23.1709 0.244525 3.52317 36.928 -32.4258 -5.78314 -3.10833 0.0 0.0 -0.0 0.0 -0.0 18.595 -2.57812 -16.5226 0.259659 0.010779 0.0383887 8.81875 -19.8671 1.28617 -2.50244 0.0 0.0 0.0 0.0 0.0 
2800.94 716.97 -1473.77 1.71151225024 50.9006002357 16.3412843829 2.48173 -1.0999 -5.4226 2.49776 -0.753145 -5.48135 2.56746 0.167497 -5.53017 2.5255 -0.706651 -5.48752 0.619739 -2.88543 3.11962 0.710014 -7.69316 3.10183 -0.0 0.0 -0.0 10.718 -4.74121 21.3562 -5.97244 -19.3795 66.2398 1.2793 -32.362 0.371224 21.8322 0.245848 -2.7612 -0.509771 -23.201 -13.2455 -0.0 0.0 -0.0 -0.285183 -0.424405 0.497341 -16.7066 23.771 -74.3344 0.543105 15.0584 -0.071783 11.2289 -0.258297 1.40885 1.33018 -7.43945 -11.8265 0.0 0.0 0.0 13.2818 31.3032 -39.4321 -23.1709 0.244525 3.52317 36.928 -32.4258 -5.78314 -3.10833 0.0 0.0 -0.0 0.0 -0.0 18.595 -2.57812 -16.5226 0.259659 0.010779 0.0383887 8.81875 -19.8671 1.28617 -2.50244 0.0 0.0 0.0 0.0 0.0 
2800.94 716.97 -1473.77 1.70672435904 50.7698968606 16.3474596483 2.48173 -1.0999 -5.4226 2.49776 -0.753145 -5.48135 2.56746 0.167497 -5.53017 2.5255 -0.706651 -5.48752 0.619739 -2.88543 3.11962 0.710014 -7.69316 3.10183 -0.0 0.0 -0.0 10.718 -4.74121 21.3562 -5.97244 -19.3795 66.2398 1.2793 -32.362 0.371224 21.8322 0.245848 -2.7612 -0.509771 -23.201 -13.2455 -0.0 0.0 -0.0 -0.285183 -0.424405 0.497341 -16.7066 23.771 -74.3344 0.543105 15.0584 -0.071783 11.2289 -0.258297 1.40885 1.33018 -7.43945 -11.8265 0.0 0.0 0.0 13.2818 31.3032 -39.4321 -23.1709 0.244525 3.52317 36.928 -32.4258 -5.78314 -3.10833 0.0 0.0 -0.0 0.0 -0.0 18.595 -2.57812 -16.5226 0.259659 0.010779 0.0383887 8.81875 -19.8671 1.28617 -2.50244 0.0 0.0 0.0 0.0 0.0 
2786.57061566 719.824 -1504.31714516 0.857065550003 55.4320247348 16.4628511812 2.67267 -0.983335 -5.26306 2.68784 -0.646926 -5.31476 2.74472 0.228386 -5.34902 2.70535 -0.618037 -5.31819 -0.881406 -3.68836 3.51436 -0.770061 -9.44558 3.31974 -0.0 0.0 -0.0 10.277 -3.87704 20.3863 -10.9314 -18.9605 67.8537 1.23589 -31.4746 0.348274 22.0472 0.243007 -2.78852 -0.318578 -21.5228 -11.276 -0.0 0.0 -0.0 -0.336921 -1.31492 0.485273 -17.0222 25.4986 -72.9375 0.769158 20.8577 -0.141569 9.95551 -0.24296 1.24692 1.23033 -3.36972 -9.59171 0.0 0.0 0.0 13.1104 29.5133 -40.0363 -22.9764 0.24843 3.49358 36.6532 -33.149 -5.81006 -0.912882 0.0 0.0 -0.0 0.0 -0.0 19.1105 -1.79741 -15.8364 -2.08505 -0.0802179 -0.309913 6.74399 -16.5564 0.979557 0.254384 -0.0 -0.0 0.0 0.0 0.0 
2769.74327822 727.345 -1536.95499637 -1.79766472258 62.5635967702 18.8075151945 3.32797 -0.990173 -5.13949 3.34241 -0.66158 -5.19188 3.39668 0.13409 -5.23204 3.35917 -0.692763 -5.18783 -0.97998 -4.1669 4.57808 -0.812088 -11.1588 4.39456 -0.0 0.0 -0.0 9.51056 -0.889429 18.6824 -14.4705 -15.9949 69.2966 1.08287 -28.2092 0.272098 20.5659 0.260495 -2.60012 0.161339 -19.9505 -7.40876 -0.0 0.0 -0.0 -0.142935 -4.26937 -0.243803 -17.4776 26.0667 -71.2013 0.910443 24.2754 -0.195812 7.49982 -0.203237 0.935777 0.963642 -1.10471 -6.89816 0.0 0.0 0.0 14.6106 24.1815 -40.4216 -24.2152 0.221836 3.68182 36.9392 -33.2509 -5.84942 2.58612 -0.0 -0.0 -0.0 0.0 -0.0 16.8028 -2.50458 -16.9497 0.20035 0.00830175 0.0296245 9.52406 -16.0396 1.36969 -1.53436 0.0 0.0 0.0 0.0 0.0 
2770.12729534 727.345 -1537.14315242 -1.77692972562 62.2160602537 18.7841155752 3.32797 -0.990173 -5.13949 3.34241 -0.66158 -5.19188 3.39668 0.13409 -5.23204 3.35917 -0.692763 -5.18783 -0.97998 -4.1669 4.57808 -0.812088 -11.1588 4.39456 -0.0 0.0 -0.0 9.51056 -0.889429 18.6824 -14.4705 -15.9949 69.2966 1.08287 -28.2092 0.272098 20.5659 0.260495 -2.60012 0.161339 -19.9505 -7.40876 -0.0 0.0 -0.0 -0.142935 -4.26937 -0.243803 -17.4776 26.0667 -71.2013 0.910443 24.2754 -0.195812 7.49982 -0.203237 0.935777 0.963642 -1.10471 -6.89816 0.0 0.0 0.0 14.6106 24.1815 -40.4216 -24.2152 0.221836 3.68182 36.9392 -33.2509 -5.84942 2.58612 -0.0 -0.0 -0.0 0.0 -0.0 16.8028 -2.50458 -16.9497 0.20035 0.00830175 0.0296245 9.52406 -16.0396 1.36969 -1.53436 0.0 0.0 0.0 0.0 0.0 
2772.15579657 727.345 -1538.08989466 -1.67670793332 60.3966650334 18.6698779882 3.32797 -0.990173 -5.13949 3.34241 -0.66158 -5.19188 3.39668 0.13409 -5.23204 3.35917 -0.692763 -5.18783 -0.97998 -4.1669 4.57808 -0.812088 -11.1588 4.39456 -0.0 0.0 -0.0 9.51056 -0.889429 18.6824 -14.4705 -15.9949 69.2966 1.08287 -28.2092 0.272098 20.5659 0.260495 -2.60012 0.161339 -19.9505 -7.40876 -0.0 0.0 -0.0 -0.142935 -4.26937 -0.243803 -17.4776 26.0667 -71.2013 0.910443 24.2754 -0.195812 7.49982 -0.203237 0.935777 0.963642 -1.10471 -6.89816 0.0 0.0 0.0 14.6106 24.1815 -40.4216 -24.2152 0.221836 3.68182 36.9392 -33.2509 -5.84942 2.58612 -0.0 -0.0 -0.0 0.0 -0.0 16.8028 -2.50458 -16.9497 0.20035 0.00830175 0.0296245 9.52406 -16.0396 1.36969 -1.53436 0.0 0.0 0.0 0.0 0.0 
